<?xml version="1.0" encoding="UTF-8"?>
<svg width="12px" height="7px" viewBox="0 0 12 7" version="1.1" xmlns="http://www.w3.org/2000/svg" xmlns:xlink="http://www.w3.org/1999/xlink">
    <!-- Generator: Sketch 49.3 (51167) - http://www.bohemiancoding.com/sketch -->
    <title>Shape</title>
    <desc>Created with Sketch.</desc>
    <defs></defs>
    <g id="Symbols" stroke="none" stroke-width="1" fill="none" fill-rule="evenodd">
        <g id="navigation" transform="translate(-365.000000, -20.000000)" fill="#F96715" fill-rule="nonzero">
            <g id="Navigation-Dropdown" transform="translate(291.000000, 12.000000)">
                <path d="M82.6788164,17 C82.5976922,17 82.5163195,16.9696889 82.4537061,16.9093111 L77.1475888,11.7703566 C77.0567745,11.7129122 77,11.6134233 77,11.5047678 C77,11.4039345 77.0488236,11.3079901 77.1282085,11.247979 L82.4110942,6.0915467 C82.5371907,5.96883561 82.7403117,5.96956895 82.8650417,6.09325781 C82.9901444,6.21719112 82.9891505,6.41714663 82.8631782,6.53997994 L77.7825439,11.4991456 L82.9041751,16.4591668 C83.0305201,16.5815112 83.0321351,16.7814667 82.9077778,16.9057667 C82.8449159,16.9684667 82.7619283,17 82.6788164,17 Z" id="Shape" transform="translate(80.000000, 11.500000) scale(-1, 1) rotate(-90.000000) translate(-80.000000, -11.500000) "></path>
            </g>
        </g>
    </g>
</svg>