<?xml version="1.0" encoding="UTF-8" standalone="no"?>
<svg width="19px" height="19px" viewBox="0 0 19 19" version="1.1" xmlns="http://www.w3.org/2000/svg" xmlns:xlink="http://www.w3.org/1999/xlink">
    <!-- Generator: Sketch 49.3 (51167) - http://www.bohemiancoding.com/sketch -->
    <title>noun_1196630</title>
    <desc>Created with Sketch.</desc>
    <defs></defs>
    <g id="Page-1" stroke="none" stroke-width="1" fill="none" fill-rule="evenodd">
        <g id="News" transform="translate(-70.000000, -790.000000)" fill="#FFFFFF" fill-rule="nonzero">
            <g id="Group-5" transform="translate(51.000000, 775.000000)">
                <g id="Group-2">
                    <g id="noun_1196630" transform="translate(19.000000, 15.000000)">
                        <path d="M6.6902093,1.25164769 C6.36256977,0.518274416 5.56854651,0 4.63953488,0 C3.71052326,0 2.9165,0.518274416 2.58886047,1.25184741 L0,1.25184741 L0,2.64989015 L2.54887209,2.64989015 C2.8477907,3.43499101 3.66965116,4 4.63953488,4 C5.6094186,4 6.43127907,3.43499101 6.73019767,2.64989015 L19,2.64989015 L19,1.25184741 L6.6902093,1.25184741 L6.6902093,1.25164769 Z M9.5,7 C8.55066279,7 7.74338372,7.5416417 7.42944186,8.30097863 L0,8.30097863 L0,9.69902137 L7.42944186,9.69902137 C7.74338372,10.4583583 8.55066279,11 9.5,11 C10.4493372,11 11.2566163,10.4583583 11.5705581,9.69902137 L19,9.69902137 L19,8.30097863 L11.5705581,8.30097863 C11.2566163,7.5416417 10.4493372,7 9.5,7 Z M14.3604651,15 C13.4111279,15 12.6038488,15.5416417 12.289907,16.3009786 L0,16.3009786 L0,17.6990214 L12.289907,17.6990214 C12.6038488,18.4583583 13.4111279,19 14.3604651,19 C15.3098023,19 16.1170814,18.4583583 16.4310233,17.6990214 L19,17.6990214 L19,16.3009786 L16.4310233,16.3009786 C16.1170814,15.5416417 15.3098023,15 14.3604651,15 Z" id="Shape"></path>
                    </g>
                </g>
            </g>
        </g>
    </g>
</svg>